<svg xmlns="http://www.w3.org/2000/svg" viewBox="0 0 750 500"><defs><style>.a{fill:#a9ff7b;}.a,.b{stroke:#000;stroke-width:6px;}.b{fill:#5ac6ff;}.c{fill:#ff963c;stroke-linecap:round;}.d{stroke:#707070;font-size:60px;font-family:Montserrat-Bold, Montserrat;font-weight:700;}.e,.g{stroke:none;}.f{fill:none;}</style></defs><g transform="translate(-978 -262)"><g class="a" transform="translate(978 262)"><circle class="e" cx="250" cy="250" r="250"/><circle class="f" cx="250" cy="250" r="247"/></g><g class="b" transform="translate(1228 262)"><circle class="e" cx="250" cy="250" r="250"/><circle class="f" cx="250" cy="250" r="247"/></g><g class="c" transform="translate(8938 6030)"><path class="e" d="M -7585.00048828125 -5304.91845703125 C -7602.79443359375 -5315.37890625 -7619.25341796875 -5328.06103515625 -7633.94580078125 -5342.63427734375 C -7649.0458984375 -5357.61279296875 -7662.16552734375 -5374.47509765625 -7672.93994140625 -5392.75341796875 C -7683.8916015625 -5411.33349609375 -7692.3525390625 -5431.267578125 -7698.0869140625 -5452.001953125 C -7704.00146484375 -5473.388671875 -7707.00048828125 -5495.59375 -7707.00048828125 -5518 C -7707.00048828125 -5540.40625 -7704.00146484375 -5562.611328125 -7698.0869140625 -5583.998046875 C -7692.3525390625 -5604.732421875 -7683.8916015625 -5624.66650390625 -7672.93994140625 -5643.24658203125 C -7662.16552734375 -5661.52490234375 -7649.0458984375 -5678.38720703125 -7633.94580078125 -5693.36572265625 C -7619.25341796875 -5707.93896484375 -7602.79443359375 -5720.62109375 -7585.00048828125 -5731.08154296875 C -7567.2060546875 -5720.62109375 -7550.74755859375 -5707.93896484375 -7536.05517578125 -5693.36572265625 C -7520.955078125 -5678.38720703125 -7507.83544921875 -5661.52490234375 -7497.06103515625 -5643.24658203125 C -7486.109375 -5624.66650390625 -7477.64892578125 -5604.732421875 -7471.91455078125 -5583.998046875 C -7466 -5562.611328125 -7463.0009765625 -5540.40625 -7463.0009765625 -5518 C -7463.0009765625 -5495.59375 -7466 -5473.388671875 -7471.91455078125 -5452.001953125 C -7477.64892578125 -5431.267578125 -7486.109375 -5411.33349609375 -7497.06103515625 -5392.75341796875 C -7507.83544921875 -5374.47509765625 -7520.955078125 -5357.6123046875 -7536.05517578125 -5342.63427734375 C -7550.74755859375 -5328.06103515625 -7567.2060546875 -5315.37890625 -7585.00048828125 -5304.91845703125 Z"/><path class="g" d="M -7585.00048828125 -5727.59375 C -7658.49462890625 -5683.6650390625 -7704.00048828125 -5603.6826171875 -7704.00048828125 -5518 C -7704.00048828125 -5432.3173828125 -7658.49462890625 -5352.3349609375 -7585.00048828125 -5308.40625 C -7511.5068359375 -5352.33447265625 -7466.0009765625 -5432.31689453125 -7466.0009765625 -5518 C -7466.0009765625 -5603.68310546875 -7511.5068359375 -5683.66552734375 -7585.00048828125 -5727.59375 M -7585.00048828125 -5734.55419921875 C -7510.27001953125 -5691.32958984375 -7460.0009765625 -5610.53857421875 -7460.0009765625 -5518 C -7460.0009765625 -5425.46142578125 -7510.27001953125 -5344.67041015625 -7585.00048828125 -5301.44580078125 C -7659.73046875 -5344.67041015625 -7710.00048828125 -5425.46142578125 -7710.00048828125 -5518 C -7710.00048828125 -5610.53857421875 -7659.73046875 -5691.32958984375 -7585.00048828125 -5734.55419921875 Z"/></g><text class="d" transform="translate(1056 390)"><tspan x="0" y="0">A</tspan></text><text class="d" transform="translate(1603 390)"><tspan x="0" y="0">B</tspan></text></g></svg>