<svg xmlns="http://www.w3.org/2000/svg" xmlns:xlink="http://www.w3.org/1999/xlink" viewBox="0 0 892.001 624.001"><defs><style>.a,.c{fill:#fff;}.b,.d,.f{fill:none;}.b,.c,.d{stroke:#707070;stroke-width:10px;}.d{stroke-linecap:round;}.e{stroke:none;}.g{filter:url(#a);}</style><filter id="a" x="0" y="0" width="892.001" height="624.001" filterUnits="userSpaceOnUse"><feOffset input="SourceAlpha"/><feGaussianBlur stdDeviation="10" result="b"/><feFlood flood-opacity="0.569"/><feComposite operator="in" in2="b"/><feComposite in="SourceGraphic"/></filter></defs><g transform="translate(-1160.998 -154.999)"><g class="g" transform="matrix(1, 0, 0, 1, 1161, 155)"><path class="a" d="M-10328,452a148,148,0,0,1-148-148h832a148,148,0,0,1-148,148Zm268-148h-416a209.372,209.372,0,0,1,4.228-41.919,206.728,206.728,0,0,1,12.12-39.045,207.9,207.9,0,0,1,19.177-35.33,209.576,209.576,0,0,1,25.4-30.784,209.381,209.381,0,0,1,30.782-25.4,207.905,207.905,0,0,1,35.332-19.177,207.109,207.109,0,0,1,39.046-12.12A209.6,209.6,0,0,1-10268,96h0c0-114.875,93.124-208,208-208s208,93.126,208,208h0a209.674,209.674,0,0,1,41.919,4.225,207.115,207.115,0,0,1,39.042,12.12,208.134,208.134,0,0,1,35.333,19.177,209.457,209.457,0,0,1,30.782,25.4,209.556,209.556,0,0,1,25.4,30.784,208.122,208.122,0,0,1,19.18,35.33,207.052,207.052,0,0,1,12.117,39.045A209.391,209.391,0,0,1-9644,304Z" transform="translate(10506 142)"/></g><g transform="translate(1360.839 437)"><g class="b"><rect class="e" width="492.608" height="127.853" rx="20"/><rect class="f" x="5" y="5" width="482.608" height="117.853" rx="15"/></g><g class="c" transform="translate(396.608 38.926)"><circle class="e" cx="25" cy="25" r="25"/><circle class="f" cx="25" cy="25" r="20"/></g><line class="d" x2="100" transform="translate(29.5 33.217)"/><line class="d" x2="100" transform="translate(29.5 64.553)"/><line class="d" x2="100" transform="translate(29.5 95.889)"/></g><g transform="translate(1360.839 578)"><g class="b"><rect class="e" width="492.608" height="127.853" rx="20"/><rect class="f" x="5" y="5" width="482.608" height="117.853" rx="15"/></g><g class="c" transform="translate(396.608 38.926)"><circle class="e" cx="25" cy="25" r="25"/><circle class="f" cx="25" cy="25" r="20"/></g><line class="d" x2="100" transform="translate(29.5 33.217)"/><line class="d" x2="100" transform="translate(29.5 64.553)"/><line class="d" x2="100" transform="translate(29.5 95.889)"/></g></g></svg>