<svg xmlns="http://www.w3.org/2000/svg" xmlns:xlink="http://www.w3.org/1999/xlink" viewBox="0 0 909 1013"><defs><style>.a{fill:#121214;}.b{fill:#232527;}.c{fill:#0aff00;}.d{fill:#ffeb00;}.e{fill:red;}.f{fill:#569cd6;}.g{fill:#6e6e6e;}.h{fill:#9cdcfe;}.i{fill:#c48b73;}.j{filter:url(#c);}.k{filter:url(#a);}</style><filter id="a" x="10" y="0" width="899" height="1013" filterUnits="userSpaceOnUse"><feOffset dx="10" dy="-10" input="SourceAlpha"/><feGaussianBlur stdDeviation="5" result="b"/><feFlood flood-opacity="0.271"/><feComposite operator="in" in2="b"/><feComposite in="SourceGraphic"/></filter><filter id="c" x="0" y="120" width="827" height="837" filterUnits="userSpaceOnUse"><feOffset input="SourceAlpha"/><feGaussianBlur stdDeviation="5" result="d"/><feFlood flood-opacity="0.161"/><feComposite operator="in" in2="d"/><feComposite in="SourceGraphic"/></filter></defs><g transform="translate(15 -1315)"><g class="k" transform="matrix(1, 0, 0, 1, -15, 1315)"><path class="a" d="M0,0H839a30,30,0,0,1,30,30V953a30,30,0,0,1-30,30H0a0,0,0,0,1,0,0V0A0,0,0,0,1,0,0Z" transform="translate(15 25)"/></g><g class="j" transform="matrix(1, 0, 0, 1, -15, 1315)"><path class="b" d="M0,0H777a20,20,0,0,1,20,20V787a20,20,0,0,1-20,20H0a0,0,0,0,1,0,0V0A0,0,0,0,1,0,0Z" transform="translate(15 135)"/></g><path class="c" d="M17,0A17,17,0,1,1,0,17,17,17,0,0,1,17,0Z" transform="translate(655 1371)"/><path class="d" d="M17,0A17,17,0,1,1,0,17,17,17,0,0,1,17,0Z" transform="translate(709 1371)"/><path class="e" d="M17,0A17,17,0,0,1,29.778,28.213,16.806,16.806,0,0,1,17,34,17,17,0,0,1,17,0Z" transform="translate(763 1371)"/><path class="f" d="M0,0H634a15,15,0,0,1,15,15v0a15,15,0,0,1-15,15H0a0,0,0,0,1,0,0V0A0,0,0,0,1,0,0Z" transform="translate(0 1581)"/><rect class="g" width="603" height="30" rx="15" transform="translate(130 1647)"/><rect class="h" width="391" height="30" rx="15" transform="translate(130 1722)"/><rect class="f" width="477" height="30" rx="15" transform="translate(130 1797)"/><rect class="i" width="542" height="30" rx="15" transform="translate(130 1872)"/><rect class="g" width="542" height="30" rx="15" transform="translate(228 1947)"/><rect class="h" width="427" height="30" rx="15" transform="translate(228 2022)"/><rect class="f" width="470" height="30" rx="15" transform="translate(228 2097)"/></g></svg>