<svg xmlns="http://www.w3.org/2000/svg" xmlns:xlink="http://www.w3.org/1999/xlink" viewBox="0 0 550 550"><defs><style>.a{fill:none;stroke:#707070;stroke-width:3px;}.b{fill:url(#ak);}.c{filter:url(#bj);}.d{filter:url(#bg);}.e{filter:url(#bd);}.f{filter:url(#ba);}.g{filter:url(#ax);}.h{filter:url(#au);}.i{filter:url(#ar);}.j{filter:url(#ao);}.k{filter:url(#al);}.l{filter:url(#ai);}.m{filter:url(#ag);}.n{filter:url(#ae);}.o{filter:url(#ac);}.p{filter:url(#aa);}.q{filter:url(#y);}.r{filter:url(#w);}.s{filter:url(#u);}.t{filter:url(#s);}.u{filter:url(#q);}.v{filter:url(#o);}.w{filter:url(#m);}.x{filter:url(#k);}.y{filter:url(#i);}.z{filter:url(#g);}.aa{filter:url(#e);}.ab{filter:url(#c);}.ac{filter:url(#a);}</style><filter id="a" x="52.526" y="54.577" width="228.949" height="90.846" filterUnits="userSpaceOnUse"><feOffset dy="3" input="SourceAlpha"/><feGaussianBlur stdDeviation="3" result="b"/><feFlood flood-opacity="0.161"/><feComposite operator="in" in2="b"/><feComposite in="SourceGraphic"/></filter><filter id="c" x="52.526" y="194.577" width="228.949" height="90.846" filterUnits="userSpaceOnUse"><feOffset dy="3" input="SourceAlpha"/><feGaussianBlur stdDeviation="3" result="d"/><feFlood flood-opacity="0.161"/><feComposite operator="in" in2="d"/><feComposite in="SourceGraphic"/></filter><filter id="e" x="52.526" y="334.577" width="228.949" height="90.846" filterUnits="userSpaceOnUse"><feOffset dy="3" input="SourceAlpha"/><feGaussianBlur stdDeviation="3" result="f"/><feFlood flood-opacity="0.161"/><feComposite operator="in" in2="f"/><feComposite in="SourceGraphic"/></filter><filter id="g" x="52.526" y="124.577" width="228.949" height="90.846" filterUnits="userSpaceOnUse"><feOffset dy="3" input="SourceAlpha"/><feGaussianBlur stdDeviation="3" result="h"/><feFlood flood-opacity="0.161"/><feComposite operator="in" in2="h"/><feComposite in="SourceGraphic"/></filter><filter id="i" x="52.526" y="264.577" width="228.949" height="90.846" filterUnits="userSpaceOnUse"><feOffset dy="3" input="SourceAlpha"/><feGaussianBlur stdDeviation="3" result="j"/><feFlood flood-opacity="0.161"/><feComposite operator="in" in2="j"/><feComposite in="SourceGraphic"/></filter><filter id="k" x="52.526" y="404.577" width="228.949" height="90.846" filterUnits="userSpaceOnUse"><feOffset dy="3" input="SourceAlpha"/><feGaussianBlur stdDeviation="3" result="l"/><feFlood flood-opacity="0.161"/><feComposite operator="in" in2="l"/><feComposite in="SourceGraphic"/></filter><filter id="m" x="258.046" y="194.752" width="233.786" height="160.748" filterUnits="userSpaceOnUse"><feOffset dy="3" input="SourceAlpha"/><feGaussianBlur stdDeviation="3" result="n"/><feFlood flood-opacity="0.161"/><feComposite operator="in" in2="n"/><feComposite in="SourceGraphic"/></filter><filter id="o" x="258.083" y="194.5" width="233.754" height="162.025" filterUnits="userSpaceOnUse"><feOffset dy="3" input="SourceAlpha"/><feGaussianBlur stdDeviation="3" result="p"/><feFlood flood-opacity="0.161"/><feComposite operator="in" in2="p"/><feComposite in="SourceGraphic"/></filter><filter id="q" x="262.168" y="54.751" width="229.664" height="160.496" filterUnits="userSpaceOnUse"><feOffset dy="3" input="SourceAlpha"/><feGaussianBlur stdDeviation="3" result="r"/><feFlood flood-opacity="0.161"/><feComposite operator="in" in2="r"/><feComposite in="SourceGraphic"/></filter><filter id="s" x="262.168" y="334.752" width="229.664" height="160.496" filterUnits="userSpaceOnUse"><feOffset dy="3" input="SourceAlpha"/><feGaussianBlur stdDeviation="3" result="t"/><feFlood flood-opacity="0.161"/><feComposite operator="in" in2="t"/><feComposite in="SourceGraphic"/></filter><filter id="u" x="261.799" y="194.737" width="230.055" height="300.161" filterUnits="userSpaceOnUse"><feOffset dy="3" input="SourceAlpha"/><feGaussianBlur stdDeviation="3" result="v"/><feFlood flood-opacity="0.161"/><feComposite operator="in" in2="v"/><feComposite in="SourceGraphic"/></filter><filter id="w" x="261.8" y="55.1" width="230.053" height="299.617" filterUnits="userSpaceOnUse"><feOffset dy="3" input="SourceAlpha"/><feGaussianBlur stdDeviation="3" result="x"/><feFlood flood-opacity="0.161"/><feComposite operator="in" in2="x"/><feComposite in="SourceGraphic"/></filter><filter id="y" x="51.939" y="124.939" width="230.121" height="230.121" filterUnits="userSpaceOnUse"><feOffset dy="3" input="SourceAlpha"/><feGaussianBlur stdDeviation="3" result="z"/><feFlood flood-opacity="0.161"/><feComposite operator="in" in2="z"/><feComposite in="SourceGraphic"/></filter><filter id="aa" x="51.939" y="264.939" width="230.121" height="230.121" filterUnits="userSpaceOnUse"><feOffset dy="3" input="SourceAlpha"/><feGaussianBlur stdDeviation="3" result="ab"/><feFlood flood-opacity="0.161"/><feComposite operator="in" in2="ab"/><feComposite in="SourceGraphic"/></filter><filter id="ac" x="51.938" y="194.577" width="230.124" height="230.483" filterUnits="userSpaceOnUse"><feOffset dy="3" input="SourceAlpha"/><feGaussianBlur stdDeviation="3" result="ad"/><feFlood flood-opacity="0.161"/><feComposite operator="in" in2="ad"/><feComposite in="SourceGraphic"/></filter><filter id="ae" x="51.938" y="54.577" width="230.124" height="230.483" filterUnits="userSpaceOnUse"><feOffset dy="3" input="SourceAlpha"/><feGaussianBlur stdDeviation="3" result="af"/><feFlood flood-opacity="0.161"/><feComposite operator="in" in2="af"/><feComposite in="SourceGraphic"/></filter><filter id="ag" x="51.714" y="125.227" width="230.573" height="369.544" filterUnits="userSpaceOnUse"><feOffset dy="3" input="SourceAlpha"/><feGaussianBlur stdDeviation="3" result="ah"/><feFlood flood-opacity="0.161"/><feComposite operator="in" in2="ah"/><feComposite in="SourceGraphic"/></filter><filter id="ai" x="51.714" y="55.228" width="230.572" height="369.544" filterUnits="userSpaceOnUse"><feOffset dy="3" input="SourceAlpha"/><feGaussianBlur stdDeviation="3" result="aj"/><feFlood flood-opacity="0.161"/><feComposite operator="in" in2="aj"/><feComposite in="SourceGraphic"/></filter><linearGradient id="ak" x1="1" x2="0" y2="1" gradientUnits="objectBoundingBox"><stop offset="0" stop-color="#ff4500"/><stop offset="1" stop-color="#ffc400"/></linearGradient><filter id="al" x="0" y="210" width="130" height="130" filterUnits="userSpaceOnUse"><feOffset dx="3" dy="3" input="SourceAlpha"/><feGaussianBlur stdDeviation="5" result="am"/><feFlood flood-opacity="0.416"/><feComposite operator="in" in2="am"/><feComposite in="SourceGraphic"/></filter><filter id="ao" x="0" y="350" width="130" height="130" filterUnits="userSpaceOnUse"><feOffset dx="3" dy="3" input="SourceAlpha"/><feGaussianBlur stdDeviation="5" result="ap"/><feFlood flood-opacity="0.416"/><feComposite operator="in" in2="ap"/><feComposite in="SourceGraphic"/></filter><filter id="ar" x="0" y="70" width="130" height="130" filterUnits="userSpaceOnUse"><feOffset dx="3" dy="3" input="SourceAlpha"/><feGaussianBlur stdDeviation="5" result="as"/><feFlood flood-opacity="0.416"/><feComposite operator="in" in2="as"/><feComposite in="SourceGraphic"/></filter><filter id="au" x="210" y="140" width="130" height="130" filterUnits="userSpaceOnUse"><feOffset dx="3" dy="3" input="SourceAlpha"/><feGaussianBlur stdDeviation="5" result="av"/><feFlood flood-opacity="0.416"/><feComposite operator="in" in2="av"/><feComposite in="SourceGraphic"/></filter><filter id="ax" x="210" y="280" width="130" height="130" filterUnits="userSpaceOnUse"><feOffset dx="3" dy="3" input="SourceAlpha"/><feGaussianBlur stdDeviation="5" result="ay"/><feFlood flood-opacity="0.416"/><feComposite operator="in" in2="ay"/><feComposite in="SourceGraphic"/></filter><filter id="ba" x="210" y="0" width="130" height="130" filterUnits="userSpaceOnUse"><feOffset dx="3" dy="3" input="SourceAlpha"/><feGaussianBlur stdDeviation="5" result="bb"/><feFlood flood-opacity="0.416"/><feComposite operator="in" in2="bb"/><feComposite in="SourceGraphic"/></filter><filter id="bd" x="210" y="420" width="130" height="130" filterUnits="userSpaceOnUse"><feOffset dx="3" dy="3" input="SourceAlpha"/><feGaussianBlur stdDeviation="5" result="be"/><feFlood flood-opacity="0.416"/><feComposite operator="in" in2="be"/><feComposite in="SourceGraphic"/></filter><filter id="bg" x="420" y="280" width="130" height="130" filterUnits="userSpaceOnUse"><feOffset dx="3" dy="3" input="SourceAlpha"/><feGaussianBlur stdDeviation="5" result="bh"/><feFlood flood-opacity="0.416"/><feComposite operator="in" in2="bh"/><feComposite in="SourceGraphic"/></filter><filter id="bj" x="420" y="140" width="130" height="130" filterUnits="userSpaceOnUse"><feOffset dx="3" dy="3" input="SourceAlpha"/><feGaussianBlur stdDeviation="5" result="bk"/><feFlood flood-opacity="0.416"/><feComposite operator="in" in2="bk"/><feComposite in="SourceGraphic"/></filter></defs><g transform="translate(-1260 -264)"><g class="ac" transform="matrix(1, 0, 0, 1, 1260, 264)"><path class="a" d="M1322,388.459l210-70" transform="translate(-1260 -256.46)"/></g><g class="ab" transform="matrix(1, 0, 0, 1, 1260, 264)"><path class="a" d="M1322,388.459l210-70" transform="translate(-1260 -116.46)"/></g><g class="aa" transform="matrix(1, 0, 0, 1, 1260, 264)"><path class="a" d="M1322,388.459l210-70" transform="translate(-1260 23.54)"/></g><g class="z" transform="matrix(1, 0, 0, 1, 1260, 264)"><path class="a" d="M1322,409.935l210,70" transform="translate(-1260 -277.93)"/></g><g class="y" transform="matrix(1, 0, 0, 1, 1260, 264)"><path class="a" d="M1322,409.935l210,70" transform="translate(-1260 -137.93)"/></g><g class="x" transform="matrix(1, 0, 0, 1, 1260, 264)"><path class="a" d="M1322,409.935l210,70" transform="translate(-1260 2.07)"/></g><g class="w" transform="matrix(1, 0, 0, 1, 1260, 264)"><path class="a" d="M1742.224,456.485l-210,140h210" transform="translate(-1260.22 -254.49)"/></g><g class="v" transform="matrix(1, 0, 0, 1, 1260, 264)"><path class="a" d="M1802.813,607.811l-210-141.28h210" transform="translate(-1320.81 -264.53)"/></g><g class="u" transform="matrix(1, 0, 0, 1, 1260, 264)"><path class="a" d="M3522,6093.991l210,140" transform="translate(-3250 -6031.99)"/></g><g class="t" transform="matrix(1, 0, 0, 1, 1260, 264)"><path class="a" d="M3528.808,6521.737l210-140" transform="translate(-3256.81 -6039.74)"/></g><g class="s" transform="matrix(1, 0, 0, 1, 1260, 264)"><path class="a" d="M3522.771,6514l209.653-280.364" transform="translate(-3250.77 -6032)"/></g><g class="r" transform="matrix(1, 0, 0, 1, 1260, 264)"><path class="a" d="M3522.771,6233.636l209.652,279.818" transform="translate(-3250.77 -6171.64)"/></g><g class="q" transform="matrix(1, 0, 0, 1, 1260, 264)"><path class="a" d="M3310.689,6181.914l210,210" transform="translate(-3248.69 -6049.91)"/></g><g class="p" transform="matrix(1, 0, 0, 1, 1260, 264)"><path class="a" d="M3310.689,6181.914l210,210" transform="translate(-3248.69 -5909.91)"/></g><g class="o" transform="matrix(1, 0, 0, 1, 1260, 264)"><path class="a" d="M3310.689,6392.279l210-210.364" transform="translate(-3248.69 -5980.28)"/></g><g class="n" transform="matrix(1, 0, 0, 1, 1260, 264)"><path class="a" d="M3310.689,6392.279l210-210.364" transform="translate(-3248.69 -6120.28)"/></g><g class="m" transform="matrix(1, 0, 0, 1, 1260, 264)"><path class="a" d="M3314.874,6164.525l210,350" transform="translate(-3252.87 -6032.53)"/></g><g class="l" transform="matrix(1, 0, 0, 1, 1260, 264)"><path class="a" d="M3302.406,6462.1l210-350" transform="translate(-3240.41 -6050.1)"/></g><g class="k" transform="matrix(1, 0, 0, 1, 1260, 264)"><circle class="b" cx="50" cy="50" r="50" transform="translate(12 222)"/></g><g class="j" transform="matrix(1, 0, 0, 1, 1260, 264)"><circle class="b" cx="50" cy="50" r="50" transform="translate(12 362)"/></g><g class="i" transform="matrix(1, 0, 0, 1, 1260, 264)"><circle class="b" cx="50" cy="50" r="50" transform="translate(12 82)"/></g><g class="h" transform="matrix(1, 0, 0, 1, 1260, 264)"><path class="b" d="M50,0A50,50,0,1,1,0,50,50,50,0,0,1,50,0Z" transform="translate(222 152)"/></g><g class="g" transform="matrix(1, 0, 0, 1, 1260, 264)"><path class="b" d="M50,0A50.128,50.128,0,0,1,97.607,34.674,49.424,49.424,0,0,1,100,50,50,50,0,1,1,50,0Z" transform="translate(222 292)"/></g><g class="f" transform="matrix(1, 0, 0, 1, 1260, 264)"><circle class="b" cx="50" cy="50" r="50" transform="translate(222 12)"/></g><g class="e" transform="matrix(1, 0, 0, 1, 1260, 264)"><path class="b" d="M50,0A50.128,50.128,0,0,1,97.607,34.674,49.424,49.424,0,0,1,100,50,50,50,0,1,1,50,0Z" transform="translate(222 432)"/></g><g class="d" transform="matrix(1, 0, 0, 1, 1260, 264)"><circle class="b" cx="50" cy="50" r="50" transform="translate(432 292)"/></g><g class="c" transform="matrix(1, 0, 0, 1, 1260, 264)"><circle class="b" cx="50" cy="50" r="50" transform="translate(432 152)"/></g></g></svg>