<svg xmlns="http://www.w3.org/2000/svg" xmlns:xlink="http://www.w3.org/1999/xlink" viewBox="0 0 889.693 446.646"><defs><style>.a{fill:#fff;}.b{fill:none;stroke:#707070;stroke-linecap:round;stroke-width:20px;}.c{filter:url(#c);}.d{filter:url(#a);}</style><filter id="a" x="0" y="0" width="593.718" height="212.646" filterUnits="userSpaceOnUse"><feOffset dx="5" dy="5" input="SourceAlpha"/><feGaussianBlur stdDeviation="5" result="b"/><feFlood flood-opacity="0.325"/><feComposite operator="in" in2="b"/><feComposite in="SourceGraphic"/></filter><filter id="c" x="299.717" y="234" width="589.976" height="212.646" filterUnits="userSpaceOnUse"><feOffset dx="3" dy="3" input="SourceAlpha"/><feGaussianBlur stdDeviation="5" result="d"/><feFlood flood-opacity="0.329"/><feComposite operator="in" in2="d"/><feComposite in="SourceGraphic"/></filter></defs><g transform="translate(-50.283 -1210)"><g class="d" transform="matrix(1, 0, 0, 1, 50.28, 1210)"><path class="a" d="M-1955.284-7430.291V-7478a40,40,0,0,1,40-40h449a40,40,0,0,1,40,40v77a40,40,0,0,1-40,40h-428.606L-1990-7335.354Z" transform="translate(2000 7528)"/></g><g class="c" transform="matrix(1, 0, 0, 1, 50.28, 1210)"><path class="a" d="M-1535.036-7361H-1950a40,40,0,0,1-40-40v-77a40,40,0,0,1,40-40h449a40,40,0,0,1,40,40v65.926l30.975,76.72Z" transform="translate(2301.72 7764)"/></g><line class="b" x2="351" transform="translate(149.5 1257.5)"/><line class="b" y1="1" x2="385" transform="translate(149.5 1297.5)"/><line class="b" x2="256" transform="translate(149.5 1339.5)"/><line class="b" x2="411" transform="translate(418.5 1493.5)"/><line class="b" x2="320" transform="translate(418.5 1534.5)"/><line class="b" x2="251" transform="translate(418.5 1575.5)"/></g></svg>